<?xml version="1.0" standalone="no"?>
<!DOCTYPE svg PUBLIC "-//W3C//DTD SVG 20010904//EN"
 "http://www.w3.org/TR/2001/REC-SVG-20010904/DTD/svg10.dtd">
<svg version="1.0" xmlns="http://www.w3.org/2000/svg"
 width="736.000000pt" height="736.000000pt" viewBox="0 0 736.000000 736.000000"
 preserveAspectRatio="xMidYMid meet">

<g transform="translate(0.000000,736.000000) scale(0.100000,-0.100000)"
fill="#000000" stroke="none">
<path d="M4970 7115 c-7 -9 -11 -18 -8 -20 3 -3 11 1 18 10 7 9 11 18 8 20 -3
3 -11 -1 -18 -10z"/>
<path d="M2244 7048 c15 -82 111 -214 218 -300 100 -82 176 -138 186 -138 5 0
13 -8 16 -17 7 -16 -26 -52 -47 -53 -13 0 -187 -120 -221 -152 -17 -16 -49
-46 -70 -66 -36 -34 -165 -207 -228 -305 -45 -71 -153 -296 -145 -304 2 -1 34
57 70 129 93 185 110 211 232 372 100 131 222 235 375 319 36 20 65 40 65 46
0 5 -40 39 -90 75 -137 99 -215 166 -252 216 -44 60 -93 155 -93 179 0 11 -5
23 -11 27 -8 5 -10 -3 -5 -28z"/>
<path d="M2335 7020 c29 -74 65 -120 153 -198 95 -83 182 -145 278 -198 46
-25 84 -49 84 -52 0 -4 -28 -18 -62 -31 -74 -28 -228 -117 -296 -170 -133
-106 -286 -301 -389 -499 -26 -48 -52 -94 -58 -102 -7 -8 -47 -91 -89 -184
-43 -96 -105 -213 -142 -268 -57 -86 -73 -102 -132 -137 -107 -63 -173 -73
-286 -40 -50 14 -141 99 -172 161 -18 36 -24 63 -24 115 0 72 19 124 89 242
18 29 30 56 27 58 -10 10 -76 -39 -120 -88 -55 -61 -86 -124 -121 -248 -23
-78 -26 -107 -21 -160 10 -116 69 -207 183 -285 86 -58 190 -95 293 -103 44
-3 80 -10 80 -16 0 -5 -21 -32 -47 -61 -25 -28 -61 -83 -80 -121 -30 -63 -33
-80 -34 -160 -1 -121 28 -205 110 -315 28 -37 28 -37 121 -149 82 -99 115
-148 150 -223 36 -75 38 -125 9 -201 -29 -76 -83 -127 -171 -163 -80 -32 -163
-37 -303 -21 l-70 9 35 -37 c19 -20 65 -57 101 -82 61 -41 74 -46 155 -55 49
-6 140 -8 202 -4 62 3 112 2 110 -2 -93 -184 -92 -182 -96 -289 -10 -255 53
-412 204 -509 50 -32 104 -53 104 -40 0 3 -31 49 -69 101 -80 110 -88 142 -78
301 9 135 52 224 72 146 12 -48 67 -135 123 -194 30 -32 59 -58 64 -58 11 0
10 71 -2 144 -11 66 -6 81 16 51 17 -23 38 -90 58 -189 15 -69 15 -69 -10 -88
-14 -12 -24 -30 -24 -46 -1 -15 -7 -38 -15 -52 -19 -33 -19 -85 1 -172 32
-140 2 -239 -107 -360 -214 -236 -206 -226 -219 -292 -12 -60 -44 -213 -74
-351 -51 -242 -148 -589 -197 -708 -16 -38 -40 -114 -55 -170 -14 -56 -37
-137 -50 -180 -24 -78 -30 -163 -18 -239 l7 -38 422 0 422 0 5 50 c3 27 2 87
-3 132 -9 98 6 331 27 432 16 80 61 223 105 338 16 43 29 79 29 81 0 2 -59
-18 -131 -45 -72 -27 -137 -47 -145 -44 -21 8 -17 25 9 35 12 5 94 41 182 79
273 118 359 152 387 152 14 0 48 11 75 24 26 13 76 31 111 40 76 21 182 67
199 87 16 20 34 133 26 170 -8 40 -35 20 447 338 63 42 121 82 128 88 26 25
30 12 13 -40 -14 -40 -27 -58 -59 -80 -37 -25 -42 -33 -42 -66 0 -49 28 -76
80 -76 73 0 117 78 73 127 -15 17 -15 22 2 78 10 33 23 64 29 69 6 5 36 5 66
0 176 -25 341 13 467 107 17 13 34 24 37 24 3 0 49 -43 103 -97 100 -98 232
-203 291 -231 28 -14 45 -42 25 -42 -15 0 -181 -165 -254 -250 -39 -47 -81
-87 -93 -90 -11 -3 -22 -15 -24 -25 -2 -11 -14 -31 -26 -45 -12 -14 -32 -40
-45 -59 -59 -84 -303 -360 -449 -508 -129 -130 -167 -163 -194 -167 -18 -3
-73 -12 -123 -20 -148 -25 -269 -35 -473 -40 -173 -5 -193 -4 -199 11 -17 44
173 277 337 413 65 54 50 65 -36 26 -31 -14 -61 -26 -66 -26 -14 0 -77 -50
-115 -90 -17 -19 -63 -79 -100 -132 -37 -54 -73 -97 -79 -98 -33 -1 -52 49
-89 230 -14 69 -33 150 -41 181 -7 31 -14 71 -14 89 0 37 0 37 -124 -21 -46
-21 -87 -47 -91 -56 -37 -94 -137 -409 -150 -475 -15 -73 -16 -101 -6 -233 7
-82 14 -184 17 -225 3 -41 7 -85 10 -97 l4 -23 1465 0 1465 0 31 67 c75 164
239 625 291 818 27 102 29 119 25 235 -3 79 -11 141 -21 168 -36 99 -132 202
-283 303 -113 76 -311 193 -405 238 -177 85 -411 293 -481 427 -57 110 -70
184 -62 339 6 110 11 141 36 205 26 67 35 79 87 116 41 30 74 44 121 53 37 7
67 9 72 4 17 -17 -39 -153 -107 -261 -19 -29 -34 -54 -34 -57 0 -22 156 80
240 156 41 38 77 64 79 58 2 -6 -9 -33 -23 -61 -14 -27 -26 -52 -26 -54 0 -3
12 2 28 10 42 22 154 143 206 223 44 68 48 72 108 90 35 11 66 18 71 16 4 -2
7 -28 7 -56 0 -29 7 -92 15 -142 13 -78 25 -111 95 -247 52 -103 80 -169 80
-190 -1 -49 -32 -110 -73 -141 -21 -15 -37 -32 -37 -36 0 -5 18 -16 40 -25 29
-12 76 -16 173 -17 148 -1 186 9 279 77 55 41 61 31 17 -32 -37 -54 -83 -85
-169 -115 -54 -19 -87 -23 -195 -23 -152 -1 -180 9 -258 92 -54 59 -92 138
-109 228 -6 35 -15 64 -20 64 -25 0 -29 -162 -5 -238 17 -57 92 -157 142 -192
54 -37 131 -75 183 -90 23 -7 42 -17 42 -22 0 -26 -150 18 -245 72 -57 33
-131 106 -168 167 -18 28 -44 51 -84 72 -89 48 -132 90 -157 151 -29 73 -50
76 -66 11 -25 -105 37 -293 132 -396 133 -145 453 -218 665 -150 48 15 102 25
140 25 118 0 234 56 349 167 68 66 100 123 125 224 19 72 21 102 16 214 -3 71
-13 158 -22 193 -10 35 -14 66 -10 70 18 17 143 -171 176 -263 24 -70 27 -197
4 -271 -23 -77 -87 -171 -159 -231 -14 -13 -26 -30 -26 -39 0 -15 8 -16 61
-10 103 10 211 76 331 201 129 134 190 302 191 530 0 190 -52 320 -186 461
-43 46 -107 101 -143 124 -35 22 -64 42 -64 44 0 2 34 21 75 41 127 63 229
197 255 335 24 124 -35 275 -150 390 -69 69 -123 103 -232 144 -70 26 -81 24
-50 -10 37 -39 79 -111 107 -179 24 -59 29 -85 29 -165 1 -86 -2 -100 -29
-155 -16 -33 -48 -78 -70 -101 -60 -62 -110 -74 -319 -74 -94 0 -177 4 -185 9
-10 6 5 20 55 49 74 43 169 76 249 87 40 6 46 9 31 17 -11 6 -64 8 -135 5
-117 -5 -151 -13 -258 -63 -64 -29 -63 -29 -63 -5 0 10 25 51 55 92 66 90 95
167 102 278 l6 84 65 66 c46 46 76 90 104 147 34 71 39 91 45 180 11 180 -30
327 -163 594 -51 101 -92 186 -90 188 2 2 32 -5 67 -15 46 -12 100 -18 194
-18 l130 0 120 60 c65 33 118 65 117 70 0 6 -36 15 -79 21 -109 16 -216 60
-330 137 -210 139 -321 260 -465 502 -152 255 -255 362 -438 451 -96 47 -270
94 -373 101 -69 5 -90 10 -94 22 -3 9 -14 33 -25 54 -40 76 -6 186 97 315 30
36 52 68 51 70 -6 5 -109 -39 -162 -69 -29 -16 -72 -53 -96 -82 -59 -69 -118
-178 -118 -216 0 -17 -3 -31 -7 -31 -4 0 -46 20 -93 44 -97 50 -183 81 -380
134 l-135 36 -215 -4 c-573 -11 -703 -3 -942 55 -92 22 -270 91 -312 121 -11
8 -33 14 -47 14 l-28 0 24 -60z m2052 -521 c56 -21 97 -79 56 -79 -10 0 -40
13 -68 28 -78 42 -69 82 12 51z m319 -70 c79 -20 69 -43 -25 -54 -62 -7 -111
6 -111 30 0 31 62 42 136 24z m-289 -65 c9 -24 -8 -33 -75 -40 -71 -8 -81 4
-29 36 39 24 95 26 104 4z m153 -96 c22 -24 23 -59 2 -66 -11 -3 -42 53 -42
78 0 17 18 11 40 -12z m-1450 -484 c-292 -86 -575 -320 -806 -666 -180 -269
-298 -588 -354 -956 -17 -109 -19 -116 -14 -47 19 285 140 660 295 916 205
340 434 569 694 694 87 43 209 83 250 84 11 0 -18 -11 -65 -25z m1141 -225
c44 -31 146 -169 125 -169 -2 0 -28 32 -57 71 -36 47 -73 83 -111 106 -32 20
-58 38 -58 40 0 7 72 -27 101 -48z m302 -404 c46 -77 107 -183 134 -235 45
-84 62 -105 149 -182 54 -48 126 -104 161 -124 35 -20 61 -39 59 -42 -10 -9
-173 79 -222 120 -47 39 -73 68 -167 183 -18 22 -73 119 -121 215 -49 96 -100
192 -113 212 -31 51 -29 59 6 23 16 -17 67 -93 114 -170z m-706 -38 c23 -34
82 -102 132 -151 l90 -90 -77 -23 c-46 -14 -127 -27 -204 -32 -145 -12 -174
-17 -182 -37 -8 -20 5 -24 91 -30 93 -7 213 13 400 66 40 12 43 11 110 -32
207 -134 275 -171 423 -224 120 -44 207 -52 314 -30 43 9 83 16 90 15 25 -1
-64 -27 -134 -39 -57 -9 -80 -18 -96 -36 -31 -35 -57 -32 -49 4 6 27 4 29 -41
39 -38 9 -52 8 -69 -3 -49 -32 -178 -30 -190 4 -3 9 -14 28 -25 42 l-19 25
-44 -44 c-44 -42 -47 -43 -149 -57 -56 -7 -146 -16 -198 -19 l-95 -7 -35 31
c-19 17 -39 30 -44 28 -5 -2 -15 -19 -21 -38 -9 -27 -22 -39 -68 -62 -54 -25
-78 -50 -63 -64 3 -3 24 2 46 12 30 14 44 15 52 7 14 -14 -4 -38 -35 -46 -14
-3 -37 -30 -62 -72 -22 -36 -50 -82 -62 -102 -13 -21 -18 -41 -13 -46 5 -5 36
-4 72 3 88 15 85 16 108 -29 57 -112 152 -167 270 -155 151 14 238 45 292 102
15 15 43 62 62 103 l34 75 98 34 c141 50 182 74 246 143 l56 62 11 -41 c28
-104 54 -394 58 -646 l4 -257 -32 -73 c-52 -113 -115 -206 -193 -282 -61 -59
-324 -265 -406 -317 -42 -26 -402 -176 -440 -183 l-36 -6 4 104 c3 82 1 110
-12 135 -15 28 -15 36 -2 66 8 19 11 38 8 42 -4 4 3 5 15 2 16 -4 20 -2 16 10
-5 12 -1 14 15 10 12 -4 20 -2 16 3 -3 5 6 9 19 9 67 0 347 263 315 296 -3 3
-39 -5 -79 -17 -64 -19 -103 -23 -289 -26 -118 -2 -209 -7 -203 -11 7 -5 9
-13 3 -21 -5 -10 -42 -17 -117 -22 -59 -5 -124 -13 -143 -19 -19 -5 -55 -10
-79 -10 -80 0 -211 -23 -211 -37 0 -7 4 -13 9 -13 5 0 40 -25 78 -55 37 -30
89 -62 116 -72 26 -9 47 -20 47 -24 0 -15 -34 -89 -78 -166 -52 -94 -60 -98
-129 -58 -34 20 -43 32 -43 53 -1 84 -23 230 -49 317 -31 107 -35 112 -108
114 -28 1 -36 -6 -67 -52 -19 -29 -47 -85 -63 -125 -17 -43 -34 -72 -42 -72
-8 0 -61 46 -117 102 -71 71 -118 128 -157 192 -60 100 -70 127 -87 231 -6 39
-15 97 -20 130 -56 339 -70 485 -50 485 16 0 72 -30 95 -50 26 -22 104 -47
178 -55 54 -6 87 -24 87 -46 0 -6 23 -35 52 -65 38 -41 63 -58 101 -69 150
-45 303 11 352 127 16 40 54 59 78 40 8 -7 18 -7 27 -2 27 17 74 11 170 -24
146 -51 187 -78 205 -137 8 -24 -32 -91 -79 -131 -37 -32 -20 -36 40 -9 42 19
86 68 99 109 10 34 -20 106 -59 140 -18 15 -78 47 -133 71 -61 26 -112 54
-131 74 -91 94 -96 313 -12 482 17 33 83 130 147 215 140 186 208 288 223 335
6 19 15 35 18 35 4 0 26 -29 49 -63z m1727 -147 c24 -134 47 -453 35 -465 -6
-6 -15 -6 -27 1 -14 9 -17 32 -19 160 -2 82 -10 207 -18 277 -14 122 -12 168
5 136 5 -8 15 -57 24 -109z m-2325 -132 c-12 -29 -23 -59 -26 -65 -9 -22 -243
-80 -243 -61 0 3 37 27 83 53 45 27 106 66 136 87 30 21 58 38 62 38 5 0 -1
-24 -12 -52z m-75 -200 c-8 -30 -14 -101 -14 -164 0 -91 -3 -114 -16 -125 -12
-10 -59 -15 -165 -18 -141 -3 -149 -2 -180 20 -32 22 -32 22 -63 4 -68 -41
-105 -56 -164 -66 -51 -9 -64 -8 -84 5 -47 33 -68 14 -68 -61 0 -38 -14 -41
-50 -14 l-24 19 42 42 c23 23 42 46 42 50 0 16 169 174 230 215 117 78 154 92
265 99 55 3 132 14 170 25 99 27 95 29 79 -31z m2620 -45 c18 -51 21 -150 6
-173 -14 -22 -18 -12 -29 75 -6 44 -14 100 -18 125 -6 40 -5 44 10 32 8 -7 23
-34 31 -59z m-1244 -148 c-23 -22 -80 -31 -80 -13 0 23 10 28 54 28 36 0 39
-2 26 -15z m-321 -25 c-22 -13 -167 -26 -156 -14 8 8 82 19 147 22 20 1 22 0
9 -8z m1431 -47 c80 -81 113 -287 62 -397 -65 -141 -160 -252 -280 -326 -71
-43 -82 -37 -82 47 0 60 4 74 35 123 57 90 111 204 130 274 21 78 41 86 75 31
27 -44 44 -41 48 11 4 41 -15 87 -55 137 -18 22 -23 41 -23 83 0 52 1 54 26
54 17 0 39 -13 64 -37z m-2610 -92 c0 -23 -29 -33 -65 -21 -50 16 -43 30 15
30 28 0 50 -4 50 -9z m-417 -33 c6 -18 -3 -38 -17 -38 -6 0 -20 7 -31 16 -17
13 -18 16 -5 24 21 14 48 12 53 -2z m1485 -100 c15 -20 -4 -58 -28 -58 -54 0
-80 43 -37 60 32 13 53 12 65 -2z m187 -40 c-9 -42 -18 -52 -85 -102 -54 -40
-57 -41 -135 -41 -62 1 -89 5 -115 21 -36 21 -80 76 -80 100 0 20 84 19 101
-2 50 -60 150 -55 192 10 12 18 30 27 69 34 29 5 54 10 56 11 2 0 0 -14 -3
-31z m-1285 -70 c0 -5 -7 -17 -16 -25 -13 -14 -17 -14 -25 -2 -12 20 -11 37 4
42 16 5 37 -3 37 -15z m-770 -61 c0 -40 -9 -114 -19 -164 -11 -51 -23 -159
-27 -243 -4 -83 -10 -153 -14 -155 -29 -18 -40 326 -15 453 17 85 52 182 66
182 5 0 9 -33 9 -73z m873 37 c10 -10 -12 -57 -41 -87 -62 -66 -127 -74 -210
-26 -80 45 -89 99 -17 99 23 0 39 -8 58 -30 22 -24 35 -30 67 -30 34 0 48 7
83 40 43 41 49 44 60 34z m-1075 -296 c39 -78 75 -156 78 -173 3 -18 -7 -3
-24 35 -17 36 -55 112 -86 170 -30 58 -56 109 -56 113 0 22 21 -14 88 -145z
m3666 -174 c3 -9 6 -27 6 -40 0 -15 6 -24 15 -24 73 0 -50 -184 -150 -226 -45
-19 -55 -18 -55 5 0 11 -9 26 -21 35 -29 20 -18 43 41 88 27 21 61 59 76 85
47 83 54 93 68 93 8 0 17 -7 20 -16z m-2244 -372 c0 -4 -7 -18 -16 -30 -12
-17 -25 -22 -58 -22 -48 0 -93 24 -65 35 15 6 95 21 127 24 6 0 12 -2 12 -7z
m300 -16 c-14 -7 -53 -18 -86 -25 -64 -12 -93 -7 -137 24 -19 14 -9 15 113 15
118 -1 132 -2 110 -14z m186 -47 c15 -24 -101 -92 -157 -92 -19 0 -47 8 -61
17 -27 18 -53 14 -62 -10 -3 -8 -15 -14 -26 -14 -15 0 -20 7 -20 24 0 31 3 33
108 61 95 25 207 32 218 14z m-951 -254 c0 -142 -2 -154 -29 -219 -16 -38 -53
-110 -82 -162 -63 -109 -128 -254 -138 -306 -6 -33 -4 -38 11 -38 26 0 95 39
147 83 79 65 242 259 301 357 32 52 66 106 75 120 16 24 67 113 97 171 9 19
24 28 49 32 20 3 51 18 70 32 73 56 72 -4 -3 -139 -62 -112 -172 -279 -224
-342 -19 -23 -59 -76 -89 -118 -176 -247 -180 -256 -140 -256 27 0 124 96 194
193 31 42 60 77 64 77 21 0 202 248 262 357 22 39 26 43 62 41 26 -1 48 6 68
20 16 12 32 22 35 22 11 0 5 -79 -9 -118 -28 -78 -111 -208 -181 -282 -99
-106 -142 -157 -185 -220 -21 -30 -52 -68 -69 -84 -18 -17 -31 -40 -31 -53 0
-22 3 -23 38 -17 43 7 308 137 400 196 57 37 64 39 80 25 28 -25 66 -30 107
-13 55 23 58 20 33 -25 -44 -79 -216 -212 -447 -345 -46 -27 -105 -67 -130
-90 -39 -34 -167 -124 -176 -124 -2 0 -37 33 -78 73 -91 89 -249 210 -337 259
-36 20 -104 46 -150 58 -47 12 -86 23 -88 25 -8 7 98 255 156 365 45 86 92
214 169 463 26 87 27 87 60 87 23 0 41 8 56 24 12 13 29 23 37 22 13 -1 15
-25 15 -151z m-302 50 c39 -27 49 -62 23 -84 -8 -7 -18 -31 -21 -54 -8 -48
-82 -251 -103 -285 -11 -17 -18 -20 -28 -11 -18 15 -17 39 2 64 32 43 66 178
71 288 3 59 9 107 12 107 4 0 23 -11 44 -25z m1692 -162 c-30 -78 -29 -351 1
-437 16 -47 16 -50 -2 -63 -60 -44 -341 -93 -360 -62 -13 21 -4 122 13 141 19
21 10 50 -26 80 -22 20 -38 23 -87 22 -32 -1 -71 -5 -86 -9 -25 -6 -27 -4 -33
28 -14 71 -8 78 80 102 44 12 123 41 175 65 52 23 130 57 172 75 43 18 90 42
105 54 35 26 58 27 48 4z m-1275 -98 c17 -9 30 -20 30 -25 0 -16 -30 -39 -45
-34 -11 5 -15 -2 -15 -28 0 -38 -21 -75 -38 -64 -23 14 -23 64 -1 115 12 28
26 51 31 51 5 0 22 -7 38 -15z m-668 -162 c55 -57 68 -81 68 -124 0 -44 -36
-162 -71 -231 -33 -65 -56 -74 -102 -38 -35 28 -40 59 -21 141 12 54 15 94 10
159 -7 78 -5 88 14 113 12 15 29 27 39 27 9 0 37 -21 63 -47z m1248 -123 c0
-33 -43 -86 -60 -75 -14 9 -1 56 23 83 28 30 37 28 37 -8z m140 -590 c0 -4 -7
-13 -15 -20 -12 -10 -18 -10 -31 1 -14 12 -14 14 1 25 17 13 45 9 45 -6z
m1295 -136 c86 -36 245 -161 245 -193 0 -16 -86 -126 -127 -161 -22 -19 -85
-77 -141 -129 -146 -136 -326 -245 -602 -367 -36 -15 -76 -36 -90 -45 -34 -23
-230 -91 -249 -87 -11 3 2 23 45 68 33 36 87 97 119 135 33 39 92 106 130 150
39 44 94 109 122 146 51 64 199 209 215 209 4 0 8 7 8 16 0 19 14 38 106 140
74 83 137 134 164 134 10 0 35 -7 55 -16z"/>
<path d="M4771 4238 c-27 -40 -83 -106 -124 -146 -89 -86 -167 -126 -327 -166
-58 -15 -124 -34 -148 -43 -35 -13 -69 -15 -183 -10 -156 7 -175 -2 -78 -38
76 -28 78 -30 69 -69 -11 -50 3 -66 57 -66 32 0 60 8 91 26 66 39 139 56 180
43 17 -6 32 -14 32 -19 0 -5 12 -12 26 -17 18 -6 30 -20 38 -43 12 -37 42 -52
57 -28 5 7 9 31 9 53 0 48 36 115 70 132 94 46 172 75 191 70 29 -8 76 17 85
45 5 13 9 70 9 128 1 58 5 131 10 163 5 40 4 57 -3 57 -6 0 -34 -33 -61 -72z"/>
<path d="M2432 4068 c-18 -18 -15 -55 14 -143 16 -52 25 -99 23 -135 -2 -76
-2 -78 21 -90 15 -8 26 -7 43 2 28 15 55 11 86 -13 16 -13 40 -19 72 -19 35 0
53 -5 63 -17 8 -10 27 -33 41 -50 15 -18 33 -33 41 -33 7 0 26 18 40 40 15 23
38 43 53 47 36 10 132 10 153 0 14 -7 19 -1 29 32 11 37 19 44 86 77 81 40
112 74 69 74 -13 0 -76 -11 -140 -25 -191 -41 -366 -28 -487 36 -45 24 -72 49
-109 98 -28 36 -57 81 -65 99 -18 37 -17 36 -33 20z"/>
<path d="M3240 3753 c-58 -41 -13 -243 55 -243 20 0 19 18 -6 74 -12 28 -19
62 -17 84 l3 37 78 3 c42 2 77 7 77 13 0 27 -159 54 -190 32z"/>
<path d="M3358 3243 c7 -3 16 -2 19 1 4 3 -2 6 -13 5 -11 0 -14 -3 -6 -6z"/>
<path d="M2535 7061 c72 -32 168 -60 268 -76 54 -9 101 -14 104 -11 7 6 -20
12 -117 26 -77 11 -228 54 -244 71 -6 5 -19 9 -30 9 -14 0 -8 -6 19 -19z"/>
<path d="M2995 6956 c102 -12 359 -13 595 -2 205 10 245 6 435 -45 164 -45
256 -75 331 -109 37 -16 69 -28 72 -25 10 10 -136 68 -278 112 -265 81 -230
77 -760 78 -345 0 -453 -3 -395 -9z"/>
<path d="M4755 6692 c6 -5 46 -12 90 -15 96 -8 71 7 -30 17 -43 4 -66 3 -60
-2z"/>
<path d="M4930 6666 c0 -2 9 -6 20 -9 11 -3 20 -1 20 4 0 5 -9 9 -20 9 -11 0
-20 -2 -20 -4z"/>
<path d="M5075 6626 c105 -34 203 -80 270 -126 40 -28 185 -169 185 -181 0 -3
10 -17 21 -30 30 -34 117 -165 141 -213 31 -62 141 -216 186 -262 58 -58 186
-163 257 -209 119 -78 257 -125 365 -125 60 0 100 -28 100 -70 0 -25 -9 -35
-57 -66 -31 -20 -73 -42 -92 -49 -20 -7 -58 -24 -86 -38 -27 -14 -67 -28 -87
-32 -21 -4 -38 -11 -38 -15 0 -12 85 13 150 43 30 14 71 32 90 41 135 61 167
104 118 161 -23 26 -97 45 -176 45 -43 0 -173 51 -250 98 -101 61 -278 209
-326 272 -42 55 -99 143 -191 296 -76 126 -196 265 -290 334 -68 50 -209 117
-298 140 -108 29 -105 22 8 -14z"/>
<path d="M1264 5775 c-81 -40 -174 -145 -214 -240 -110 -266 -89 -450 67 -599
74 -70 218 -147 301 -161 23 -4 42 -11 42 -17 0 -5 -15 -37 -34 -71 -58 -104
-71 -248 -32 -372 25 -81 90 -183 201 -314 73 -87 80 -96 122 -157 22 -34 49
-84 59 -111 16 -45 16 -56 4 -94 -22 -70 -56 -109 -126 -140 -53 -24 -77 -29
-143 -29 -44 0 -83 -4 -86 -10 -4 -6 22 -10 70 -10 97 0 209 43 254 97 30 37
51 93 51 139 0 50 -52 147 -125 235 -16 20 -50 62 -75 94 -25 31 -62 78 -83
103 -83 101 -127 226 -127 359 0 96 21 167 70 239 35 52 32 58 -29 69 -151 27
-330 155 -395 283 -59 116 -58 217 4 398 34 101 59 144 119 208 72 76 118 106
163 106 84 0 100 -40 46 -112 -18 -24 -50 -75 -70 -114 -32 -61 -38 -82 -38
-133 0 -80 22 -125 85 -171 11 -8 5 2 -13 24 -43 50 -52 75 -52 146 0 55 35
162 58 180 4 3 24 31 46 62 53 80 44 114 -39 132 -22 5 -44 -1 -81 -19z"/>
<path d="M6004 5212 c-7 -5 7 -44 42 -118 146 -308 181 -576 98 -759 -30 -66
-54 -101 -126 -186 -39 -46 -48 -64 -48 -95 0 -53 -26 -160 -52 -212 -11 -24
-18 -45 -16 -48 5 -5 126 12 188 26 35 8 35 8 5 9 -16 0 -59 -4 -94 -9 -35 -6
-66 -9 -68 -6 -5 5 16 74 28 91 4 6 10 39 14 75 5 36 9 75 11 88 2 21 43 78
102 141 13 14 42 64 65 111 l42 85 0 150 c0 204 -31 333 -123 520 -22 44 -43
91 -47 103 -7 24 -7 24 57 17 34 -3 83 -2 108 3 40 9 35 10 -52 11 -53 1 -102
3 -110 6 -7 3 -18 1 -24 -3z"/>
<path d="M6243 4368 c-25 -12 -38 -56 -27 -90 4 -13 26 -40 50 -61 52 -45 88
-106 120 -199 29 -87 30 -148 3 -207 -32 -73 -36 -74 -74 -36 -29 28 -43 34
-99 40 -35 4 -70 5 -78 3 -7 -3 19 -8 59 -12 85 -8 123 -35 123 -87 0 -31 1
-31 19 -15 10 9 33 44 51 78 31 57 32 65 28 142 -4 70 -10 92 -47 169 -31 62
-57 100 -93 132 -57 52 -68 95 -29 126 25 20 33 20 122 -14 143 -54 249 -118
316 -190 40 -42 107 -165 128 -233 53 -169 -3 -343 -156 -490 -35 -33 -71 -63
-79 -66 -11 -4 12 -33 80 -101 128 -131 163 -186 206 -327 16 -52 23 -66 23
-45 1 93 -96 265 -219 385 l-79 77 65 54 c158 131 229 341 174 517 -62 197
-175 313 -402 410 -110 46 -153 56 -185 40z"/>
<path d="M6168 3653 c12 -2 32 -2 45 0 12 2 2 4 -23 4 -25 0 -35 -2 -22 -4z"/>
<path d="M1218 3488 c-54 -43 -16 -122 102 -213 113 -87 194 -115 337 -115
112 0 119 -4 97 -57 -45 -112 -34 -380 20 -499 60 -132 122 -196 254 -266 45
-23 66 -29 99 -25 40 4 42 3 57 -32 l16 -36 -4 48 c-5 65 -11 69 -58 35 -25
-18 -84 4 -172 62 -117 79 -183 186 -210 345 -24 136 -21 257 8 346 13 41 22
77 19 81 -2 5 -44 8 -92 8 -167 0 -267 34 -371 127 -89 78 -110 105 -110 141
0 48 30 58 109 38 87 -22 110 -19 31 5 -76 22 -110 24 -132 7z"/>
<path d="M865 3310 c-3 -6 1 -7 9 -4 18 7 21 14 7 14 -6 0 -13 -4 -16 -10z"/>
<path d="M1041 3283 c7 -12 15 -20 18 -17 3 2 -3 12 -13 22 -17 16 -18 16 -5
-5z"/>
<path d="M423 3283 c9 -2 23 -2 30 0 6 3 -1 5 -18 5 -16 0 -22 -2 -12 -5z"/>
<path d="M478 3283 c7 -3 16 -2 19 1 4 3 -2 6 -13 5 -11 0 -14 -3 -6 -6z"/>
<path d="M334 3237 l-29 -32 30 25 c17 14 32 26 34 28 2 1 2 4 -1 7 -2 3 -18
-10 -34 -28z"/>
<path d="M981 3220 c0 -8 4 -24 9 -35 5 -13 9 -14 9 -5 0 8 -4 24 -9 35 -5 13
-9 14 -9 5z"/>
<path d="M670 3216 c0 -2 8 -10 18 -17 15 -13 16 -12 3 4 -13 16 -21 21 -21
13z"/>
<path d="M389 3179 c-56 -60 -33 -114 99 -223 12 -11 22 -15 22 -10 0 5 -14
18 -30 28 -45 26 -110 112 -110 146 0 62 93 100 167 68 67 -29 135 -80 148
-111 14 -35 55 -78 55 -59 0 7 -5 12 -11 12 -5 0 -16 15 -24 34 -30 70 -153
145 -238 146 -42 0 -53 -4 -78 -31z"/>
<path d="M750 3192 c0 -7 -7 -12 -16 -12 -8 0 -12 -4 -9 -10 3 -5 10 -10 15
-10 10 0 22 31 15 38 -3 3 -5 0 -5 -6z"/>
<path d="M286 3165 c-9 -26 -7 -32 5 -12 6 10 9 21 6 23 -2 3 -7 -2 -11 -11z"/>
<path d="M820 3140 c-6 -11 -8 -20 -6 -20 3 0 10 9 16 20 6 11 8 20 6 20 -3 0
-10 -9 -16 -20z"/>
<path d="M772 3040 c-7 -11 -8 -20 -2 -20 5 0 14 9 20 20 6 11 7 20 3 20 -5 0
-14 -9 -21 -20z"/>
<path d="M1051 3014 c0 -11 3 -14 6 -6 3 7 2 16 -1 19 -3 4 -6 -2 -5 -13z"/>
<path d="M320 3000 c0 -5 5 -10 11 -10 5 0 7 5 4 10 -3 6 -8 10 -11 10 -2 0
-4 -4 -4 -10z"/>
<path d="M5283 3004 c-7 -3 -22 -22 -35 -42 -31 -52 -118 -159 -171 -212 -54
-54 -85 -77 -154 -116 -45 -25 -56 -27 -73 -16 -29 18 -32 17 -128 -38 -54
-30 -100 -50 -119 -50 -17 0 -33 -5 -35 -12 -3 -7 1 -44 8 -83 19 -107 56
-178 140 -267 127 -136 241 -221 395 -298 104 -51 174 -92 332 -195 250 -163
326 -248 367 -411 40 -159 23 -307 -66 -564 -25 -74 -68 -200 -94 -280 -48
-143 -80 -227 -125 -325 -26 -58 -39 -95 -31 -95 7 0 61 118 105 230 51 132
218 642 233 715 17 78 17 224 0 300 -32 140 -118 257 -267 364 -47 34 -88 61
-91 61 -4 0 -23 13 -43 29 -20 15 -51 36 -70 45 -18 10 -58 33 -88 53 -71 45
-60 60 27 38 46 -12 95 -15 193 -12 132 3 146 5 202 27 16 6 56 13 90 15 115
7 238 46 300 95 44 35 61 37 68 11 16 -62 172 -69 296 -15 130 58 305 224 370
351 28 56 71 208 70 247 -1 25 -4 20 -14 -24 -25 -101 -32 -125 -59 -188 -61
-144 -234 -314 -391 -383 -52 -23 -184 -34 -223 -18 -31 12 -44 48 -26 76 29
45 12 40 -70 -21 -99 -75 -178 -105 -305 -115 -48 -4 -93 -11 -100 -15 -30
-19 -133 -35 -224 -36 -150 0 -325 44 -425 109 -51 33 -136 115 -158 152 -124
215 -128 489 -6 489 25 0 79 -61 88 -98 9 -35 19 -47 77 -94 73 -57 82 -53 83
35 1 118 32 187 84 187 42 0 67 -36 73 -106 5 -68 50 -180 77 -194 13 -7 31 4
78 48 76 71 79 95 26 192 -99 179 -125 245 -145 378 -12 78 -18 87 -46 76z
m27 -36 c0 -33 20 -138 37 -188 16 -49 79 -180 118 -245 15 -25 24 -56 25 -82
0 -38 -4 -45 -54 -87 -29 -25 -56 -46 -59 -46 -3 0 -19 30 -36 66 -23 49 -31
81 -31 121 0 47 -4 59 -29 84 -33 33 -74 38 -108 14 -29 -21 -53 -97 -53 -172
0 -38 -4 -63 -11 -63 -19 0 -109 72 -109 88 0 19 -34 78 -63 109 -33 35 -30
46 15 69 51 26 128 92 159 133 15 22 36 45 46 52 20 16 94 112 112 147 15 28
41 29 41 0z m-470 -363 c9 -11 7 -19 -14 -40 -81 -81 -40 -362 75 -504 99
-123 7 -68 -151 89 -92 92 -148 194 -160 291 -9 73 -7 79 23 79 23 0 49 12
147 68 64 37 64 36 80 17z"/>
<path d="M350 2971 c0 -5 5 -13 10 -16 6 -3 10 -2 10 4 0 5 -4 13 -10 16 -5 3
-10 2 -10 -4z"/>
<path d="M933 2930 c-6 -17 -8 -30 -3 -30 8 0 24 50 18 56 -2 2 -9 -10 -15
-26z"/>
<path d="M527 2929 c7 -7 15 -10 18 -7 3 3 -2 9 -12 12 -14 6 -15 5 -6 -5z"/>
<path d="M607 2875 c29 -19 56 -35 60 -35 4 0 -16 16 -44 35 -29 19 -56 35
-60 35 -4 0 16 -16 44 -35z"/>
<path d="M4670 2866 c-33 -24 -50 -46 -63 -82 -30 -79 -34 -98 -27 -118 6 -19
7 -19 26 1 10 12 30 37 44 58 14 20 30 42 36 49 12 13 64 111 64 121 0 15 -40
1 -80 -29z m43 -2 c8 -8 -5 -33 -57 -111 -45 -68 -56 -76 -56 -39 0 37 38 113
68 135 30 22 35 24 45 15z"/>
<path d="M906 2855 c-3 -9 -6 -22 -5 -28 0 -7 5 -1 10 12 5 13 8 26 5 28 -2 2
-6 -3 -10 -12z"/>
<path d="M996 2855 c-9 -26 -7 -32 5 -12 6 10 9 21 6 23 -2 3 -7 -2 -11 -11z"/>
<path d="M685 2831 c3 -6 20 -18 37 -27 16 -9 27 -11 23 -5 -3 6 -20 18 -37
27 -16 9 -27 11 -23 5z"/>
<path d="M2024 2786 c-4 -9 -4 -53 -2 -96 5 -79 5 -80 64 -157 62 -80 84 -98
84 -66 0 11 12 43 26 72 l27 53 -29 28 c-26 24 -82 87 -143 159 -18 21 -21 22
-27 7z m90 -97 c92 -99 91 -97 59 -159 l-27 -52 -34 38 c-50 59 -82 127 -82
177 0 76 11 75 84 -4z"/>
<path d="M880 2779 c0 -5 5 -7 10 -4 6 3 10 8 10 11 0 2 -4 4 -10 4 -5 0 -10
-5 -10 -11z"/>
<path d="M780 2775 c0 -2 10 -10 23 -16 20 -11 21 -11 8 4 -13 16 -31 23 -31
12z"/>
<path d="M875 2750 c-4 -6 -16 -8 -28 -4 -22 6 -22 6 -2 -10 26 -20 32 -20 38
4 6 22 2 26 -8 10z"/>
<path d="M941 2664 c0 -11 3 -14 6 -6 3 7 2 16 -1 19 -3 4 -6 -2 -5 -13z"/>
<path d="M1638 2563 c6 -2 18 -2 25 0 6 3 1 5 -13 5 -14 0 -19 -2 -12 -5z"/>
<path d="M6357 2540 c-3 -8 -8 -53 -10 -100 -6 -101 -43 -226 -88 -293 -17
-27 -29 -50 -27 -53 17 -16 110 100 144 182 22 51 23 195 2 244 -11 24 -17 30
-21 20z"/>
<path d="M1710 2536 c0 -2 8 -10 18 -17 15 -13 16 -12 3 4 -13 16 -21 21 -21
13z"/>
<path d="M1528 2507 c-14 -13 -30 -21 -36 -19 -17 5 -15 -5 2 -11 7 -3 26 8
42 24 33 34 28 39 -8 6z"/>
<path d="M1280 2480 c-8 -5 -12 -11 -10 -14 3 -2 14 2 24 10 22 15 10 19 -14
4z"/>
<path d="M1605 2470 c-3 -6 1 -7 9 -4 18 7 21 14 7 14 -6 0 -13 -4 -16 -10z"/>
<path d="M1748 2435 c2 -19 6 -35 8 -35 2 0 4 16 4 35 0 19 -4 35 -8 35 -4 0
-6 -16 -4 -35z"/>
<path d="M1237 2428 c-9 -31 -2 -33 11 -3 6 14 8 25 3 25 -5 0 -11 -10 -14
-22z"/>
<path d="M1355 2430 c-55 -22 -56 -74 -2 -110 l32 -22 -27 26 c-18 16 -28 35
-28 54 0 24 5 31 28 37 15 5 41 8 57 7 29 -1 29 -1 5 7 -32 11 -41 12 -65 1z"/>
<path d="M1469 2393 c6 -13 19 -23 28 -23 9 0 14 1 12 3 -2 1 -15 11 -28 22
l-24 20 12 -22z"/>
<path d="M1541 2390 c-13 -11 -19 -20 -14 -20 6 0 18 9 28 20 23 25 17 25 -14
0z"/>
<path d="M1395 2291 c7 -12 96 -64 101 -59 2 2 -21 18 -52 36 -30 17 -52 27
-49 23z"/>
<path d="M1280 2276 c0 -2 14 -14 30 -26 17 -12 30 -19 30 -16 0 2 -13 14 -30
26 -16 12 -30 19 -30 16z"/>
<path d="M1397 2184 c6 -15 23 -19 23 -5 0 5 -7 11 -14 14 -10 4 -13 1 -9 -9z"/>
<path d="M1570 2186 c0 -2 7 -7 16 -10 8 -3 12 -2 9 4 -6 10 -25 14 -25 6z"/>
<path d="M2165 2093 l-28 -38 34 32 c18 18 30 35 27 38 -3 3 -18 -11 -33 -32z"/>
<path d="M1605 2070 c4 -6 11 -8 16 -5 14 9 11 15 -7 15 -8 0 -12 -5 -9 -10z"/>
<path d="M1801 1364 c0 -11 3 -14 6 -6 3 7 2 16 -1 19 -3 4 -6 -2 -5 -13z"/>
<path d="M1525 431 c-9 -28 -15 -59 -13 -68 2 -10 11 11 20 47 19 79 16 90 -7
21z"/>
</g>
</svg>
