<?xml version="1.0" standalone="no"?>
<!DOCTYPE svg PUBLIC "-//W3C//DTD SVG 20010904//EN"
 "http://www.w3.org/TR/2001/REC-SVG-20010904/DTD/svg10.dtd">
<svg version="1.0" xmlns="http://www.w3.org/2000/svg"
 width="834.000000pt" height="824.000000pt" viewBox="0 0 834.000000 824.000000"
 preserveAspectRatio="xMidYMid meet">

<g transform="translate(0.000000,824.000000) scale(0.100000,-0.100000)"
fill="#000000" stroke="none">
<path d="M4341 8040 c-99 -39 -168 -129 -196 -256 -30 -131 8 -349 86 -493 22
-40 38 -75 37 -76 -2 -2 -41 -16 -88 -33 -47 -17 -123 -46 -170 -66 -47 -19
-156 -60 -243 -91 -87 -30 -215 -81 -285 -111 -316 -139 -444 -234 -569 -422
-84 -126 -97 -167 -96 -292 2 -181 34 -289 112 -374 l26 -29 -49 7 c-91 11
-220 66 -271 114 -16 15 -47 48 -67 72 l-38 44 0 -76 c0 -92 30 -184 84 -262
50 -71 220 -246 240 -246 30 0 16 -15 -39 -44 -106 -55 -266 -246 -300 -359
-26 -85 -31 -197 -10 -259 16 -51 58 -118 74 -118 4 0 15 25 25 56 13 42 31
70 69 108 28 28 52 46 54 40 2 -6 -5 -45 -17 -85 -23 -84 -27 -223 -9 -344 12
-77 17 -86 39 -60 15 18 112 55 145 55 28 0 131 -43 155 -65 9 -8 35 -14 61
-13 59 1 94 -22 125 -83 24 -48 34 -143 16 -151 -4 -1 -18 -22 -30 -46 l-22
-43 40 -70 c50 -88 91 -226 107 -358 7 -57 -13 -209 -37 -281 -10 -30 -23 -83
-30 -118 l-11 -63 35 -47 c67 -91 192 -196 265 -220 52 -18 54 -15 22 26 -31
39 -71 130 -71 162 0 18 3 17 43 -9 167 -112 188 -120 302 -120 50 -1 117 3
150 9 53 8 65 14 96 51 l37 42 -49 43 -50 44 48 0 c73 0 203 23 203 36 0 6
-10 19 -21 30 -12 10 -51 55 -87 99 -48 60 -60 81 -48 83 9 2 91 -15 183 -38
93 -23 222 -48 288 -56 91 -10 123 -18 133 -31 20 -26 84 -154 80 -159 -3 -2
-42 10 -89 27 -79 29 -93 31 -239 32 l-155 2 -64 -35 c-86 -46 -242 -203 -283
-285 -34 -67 -66 -185 -77 -285 -8 -77 2 -250 19 -321 7 -28 10 -72 7 -97 l-5
-47 25 30 c98 120 172 265 180 354 7 74 23 70 23 -5 0 -115 -76 -259 -204
-386 -66 -66 -120 -135 -162 -206 -4 -7 -177 22 -324 53 -85 19 -203 40 -262
47 l-108 12 0 94 c0 77 7 119 40 245 23 84 57 188 77 232 46 101 50 149 24
249 -39 148 -30 275 40 555 29 113 31 135 27 245 -4 102 -10 135 -37 215 -17
51 -47 125 -67 164 -31 62 -33 72 -21 91 36 57 47 104 35 156 -6 27 -23 64
-38 81 -22 28 -33 32 -76 33 -35 1 -63 9 -99 31 -37 22 -65 30 -112 33 -57 4
-68 1 -129 -33 -38 -21 -79 -50 -92 -64 -28 -30 -82 -137 -82 -163 0 -10 -4
-18 -10 -18 -22 0 -89 -73 -109 -120 -30 -70 -37 -155 -17 -204 l16 -39 -35
-38 c-34 -38 -65 -98 -65 -126 0 -8 -26 -47 -58 -86 -56 -68 -201 -279 -360
-524 -40 -61 -87 -129 -103 -150 -50 -63 -201 -223 -210 -223 -31 0 -313 394
-462 647 -155 262 -306 554 -347 671 -11 31 -24 58 -29 61 -12 8 -81 175 -81
195 0 9 -4 16 -9 16 -9 0 -48 118 -90 275 -52 195 -141 609 -141 655 0 25 -6
56 -14 70 -7 14 -42 77 -77 140 -100 178 -205 427 -197 466 2 12 16 -12 37
-61 18 -44 76 -168 129 -275 82 -164 105 -202 147 -241 286 -265 409 -371 479
-415 26 -16 80 -56 119 -89 110 -94 177 -147 242 -194 33 -24 74 -57 92 -74
18 -17 48 -40 67 -51 19 -12 67 -42 105 -69 101 -68 158 -79 368 -71 189 6
441 30 457 43 6 4 43 16 81 25 105 25 176 57 171 75 -23 78 -28 120 -28 206 0
65 5 116 15 145 l16 45 -25 -30 c-13 -16 -33 -52 -43 -80 -11 -28 -26 -51 -35
-53 -30 -6 -64 26 -95 90 -70 143 -28 335 114 523 57 76 109 122 172 155 l39
20 -49 51 -50 52 -201 -6 c-110 -4 -263 -15 -339 -24 -129 -17 -140 -20 -182
-53 -55 -42 -137 -160 -160 -229 -9 -28 -21 -51 -26 -51 -13 0 -1 45 32 118
24 54 26 61 9 52 -10 -5 -30 -25 -44 -42 -19 -25 -26 -29 -26 -15 0 28 88 115
173 170 52 34 76 55 72 65 -13 36 -149 225 -229 321 -81 97 -189 238 -341 446
-101 139 -164 201 -330 324 -165 123 -319 222 -550 351 -195 109 -243 130
-518 220 l-57 19 0 -1288 0 -1287 53 -43 c63 -52 121 -87 195 -117 69 -28 56
-31 -20 -5 -72 25 -112 46 -175 93 l-53 39 0 -1533 1 -1533 23 65 c70 196 205
479 307 645 50 81 220 335 225 335 7 0 -3 -17 -31 -55 -42 -57 -198 -331 -265
-466 -106 -211 -236 -526 -228 -551 2 -5 29 41 60 104 161 321 494 702 786
899 l47 32 -25 -28 -25 -28 45 30 c52 35 210 121 195 106 -5 -5 -59 -41 -120
-78 -190 -120 -236 -156 -374 -290 -260 -253 -403 -445 -543 -725 l-78 -155 1
-335 1 -335 30 90 c68 204 193 556 225 635 79 192 130 274 299 491 95 122 119
144 275 261 87 65 137 95 196 117 45 16 121 50 169 74 49 25 108 50 131 57 40
12 93 8 93 -8 0 -8 -41 -39 -136 -104 -23 -15 -85 -46 -139 -67 -129 -53 -170
-97 -194 -209 -11 -53 -7 -96 12 -120 18 -23 22 -12 22 61 0 65 4 78 35 132
31 52 40 60 80 70 203 52 530 313 752 602 31 40 86 121 124 180 38 59 91 140
119 178 28 39 95 134 150 213 54 78 101 142 104 142 3 0 7 -28 8 -62 4 -100
51 -232 108 -299 38 -46 82 -286 62 -343 -5 -16 -18 -37 -28 -47 -50 -50 -110
-231 -124 -375 -6 -61 6 -197 31 -345 6 -35 3 -41 -69 -116 -42 -44 -113 -105
-159 -135 -77 -53 -85 -56 -105 -42 -41 26 -73 18 -123 -34 -25 -27 -56 -69
-69 -94 -15 -33 -35 -55 -65 -72 -24 -14 -57 -41 -74 -61 -35 -39 -82 -135
-82 -165 0 -25 -4 -25 -78 5 -61 25 -146 33 -157 16 -3 -5 12 -15 32 -22 140
-45 271 -138 370 -261 55 -69 58 -71 61 -46 4 36 -58 155 -115 218 -48 54 -56
96 -27 153 16 32 63 87 73 87 3 0 6 -44 7 -98 1 -115 24 -175 96 -260 25 -29
48 -65 51 -80 4 -15 18 -76 31 -137 14 -60 31 -168 37 -239 6 -71 15 -140 20
-153 6 -16 5 -23 -4 -23 -16 0 -81 44 -137 93 -25 21 -66 50 -92 63 -26 13
-49 28 -53 34 -9 15 -130 80 -148 80 -9 0 -41 -35 -71 -77 -58 -81 -179 -316
-191 -368 -3 -16 -33 -84 -66 -150 -32 -65 -59 -125 -59 -132 0 -31 28 -8 59
50 39 72 110 186 128 205 7 7 18 21 25 30 7 9 23 25 35 35 21 18 24 17 184
-62 90 -45 178 -84 194 -87 l30 -7 -19 22 c-21 23 -147 106 -213 140 -24 12
-72 28 -108 36 -63 15 -66 15 -87 -5 -29 -27 -42 -25 -27 2 24 47 182 338 183
338 1 0 33 -30 71 -67 60 -57 136 -111 282 -202 36 -22 170 -57 180 -47 6 6
-34 46 -46 46 -3 0 -6 66 -7 148 -1 237 -53 452 -129 528 -97 97 -112 343 -30
504 30 59 61 90 91 90 29 0 34 -9 39 -68 2 -27 36 -138 75 -248 39 -109 96
-271 126 -358 63 -180 136 -351 165 -382 19 -20 19 -22 -11 -135 -37 -142 -50
-328 -30 -443 12 -74 14 -76 41 -76 29 0 29 1 29 60 0 43 4 60 13 60 7 0 51
-19 97 -41 137 -67 181 -79 289 -78 72 1 87 3 61 9 -37 9 -349 119 -412 146
-21 10 -43 30 -54 49 -17 32 -17 38 4 162 24 147 36 241 33 263 -5 41 -13 60
-21 55 -6 -3 -10 2 -10 12 0 11 -4 23 -10 29 -5 5 -18 34 -29 64 -11 30 -38
102 -61 160 -85 216 -173 456 -182 495 -18 77 -35 185 -29 185 3 0 17 -16 30
-35 13 -19 42 -52 64 -72 23 -20 54 -63 69 -96 26 -54 70 -113 157 -209 56
-63 62 -75 71 -160 7 -71 -1 -206 -14 -227 -3 -4 -1 -13 4 -21 8 -13 11 -13
24 0 15 16 46 148 46 200 0 16 3 30 8 30 4 0 68 -87 142 -192 74 -105 180
-252 234 -327 55 -75 133 -183 174 -241 141 -199 206 -280 225 -280 16 0 13 8
-17 48 -106 139 -230 316 -400 572 -235 354 -334 488 -490 660 -32 36 -81 104
-110 153 -28 48 -56 87 -62 87 -7 0 -37 31 -68 69 -78 95 -77 112 11 188 38
32 90 79 117 106 27 26 50 46 51 45 2 -2 12 -22 23 -44 28 -55 85 -114 108
-113 11 0 14 3 7 6 -7 2 -13 10 -13 17 0 7 -15 47 -34 87 -55 120 -75 207 -91
409 -5 68 10 188 31 255 9 28 39 99 67 159 l50 109 -6 86 c-9 135 -38 235 -86
290 -39 45 -73 175 -74 281 -1 123 22 199 71 240 20 16 39 27 43 24 4 -2 13
-30 19 -62 48 -243 207 -602 323 -728 78 -85 134 -118 189 -111 23 3 54 15 71
27 35 27 36 26 72 -80 30 -90 31 -106 5 -148 -55 -90 -146 -349 -161 -457 -6
-45 -9 -124 -7 -176 2 -67 -1 -97 -10 -104 -12 -10 -10 -14 91 -140 13 -16 83
-118 155 -225 73 -107 164 -240 204 -295 84 -118 284 -320 385 -389 57 -39 84
-66 134 -140 34 -50 82 -116 105 -146 39 -52 43 -63 54 -154 12 -92 9 -275 -6
-369 l-6 -37 138 0 139 0 45 113 c83 209 373 753 394 740 5 -3 6 -1 2 5 -4 6
12 42 35 79 66 107 128 221 172 313 38 81 117 269 117 278 0 2 -75 0 -167 -4
-264 -12 -249 -13 -244 16 5 36 54 141 92 197 38 56 61 81 115 124 22 17 39
35 39 39 0 5 3 12 8 16 19 20 3 22 -30 4 -111 -59 -225 -172 -299 -296 -10
-17 -15 -11 -44 45 -113 225 -210 481 -210 555 1 56 40 135 213 424 l19 33 39
-53 c21 -29 47 -70 58 -91 17 -34 20 -36 26 -18 9 30 -11 94 -50 151 -19 29
-35 58 -35 65 0 7 25 65 56 130 50 103 58 115 68 98 26 -46 113 -135 151 -153
22 -11 65 -23 95 -28 41 -6 54 -12 51 -23 -2 -8 -13 -46 -24 -86 -17 -62 -23
-72 -46 -76 -35 -8 -101 -64 -101 -87 0 -30 33 -80 58 -87 13 -3 42 -3 65 0
81 11 114 93 62 155 -16 19 -21 32 -14 39 5 5 23 43 39 84 l28 74 109 6 c129
7 243 31 281 58 15 10 40 33 56 50 34 35 48 38 67 14 8 -9 38 -27 67 -40 39
-17 51 -27 44 -36 -90 -115 -154 -226 -187 -325 -13 -40 -24 -56 -44 -63 -57
-22 -110 -53 -151 -88 -70 -60 -46 -67 53 -16 48 24 87 41 87 36 0 -5 -17 -47
-38 -93 -21 -45 -45 -99 -52 -118 -7 -19 -66 -145 -130 -280 -65 -135 -143
-311 -175 -390 -31 -80 -83 -200 -115 -268 -80 -166 -209 -394 -221 -387 -5 3
-6 0 -4 -8 3 -7 -8 -32 -25 -56 -17 -23 -52 -77 -77 -119 -81 -138 -313 -613
-313 -642 0 -7 373 -10 1084 -10 l1085 0 -9 29 c-8 29 -18 111 -25 196 -2 22
-8 98 -15 170 -6 72 -12 228 -13 347 -1 120 -3 218 -4 218 -1 0 -21 -35 -44
-78 -58 -106 -123 -212 -192 -311 -68 -97 -138 -191 -143 -191 -2 0 25 44 60
98 117 179 267 436 313 532 24 52 51 106 58 120 35 67 177 474 246 705 27 88
31 120 36 265 10 303 -46 564 -155 731 -76 116 -117 139 -306 169 -83 13 -158
47 -212 95 -45 42 -42 41 46 -3 94 -47 191 -64 335 -60 106 3 124 6 153 26 27
20 33 21 38 8 6 -15 -12 -56 -28 -67 -14 -9 18 -122 54 -193 34 -69 119 -154
179 -182 22 -9 39 -23 39 -30 0 -16 -64 -67 -113 -90 -32 -15 -37 -22 -32 -44
3 -14 9 -67 14 -117 6 -51 13 -98 17 -104 10 -17 233 -5 314 16 36 9 83 27
106 40 98 57 234 256 255 373 24 132 28 141 25 52 -4 -91 -24 -156 -72 -232
-83 -132 -97 -148 -182 -206 -76 -52 -103 -64 -216 -96 -71 -20 -131 -38 -134
-40 -9 -10 11 -26 32 -26 13 0 43 -8 67 -17 36 -13 82 -17 244 -17 188 -1 203
1 260 23 74 30 147 72 204 119 39 32 42 33 27 9 -10 -14 -15 -31 -11 -37 4 -6
49 -10 112 -10 104 0 108 1 172 37 40 22 100 71 154 124 l87 88 0 334 0 334
-70 106 c-47 71 -90 123 -130 156 -66 55 -190 131 -214 131 -8 0 -26 4 -41 10
l-26 10 39 53 c67 90 92 149 92 217 0 103 -45 194 -129 263 -55 45 -106 62
-156 53 l-38 -7 6 -74 c8 -88 4 -101 -35 -121 -36 -19 -78 -13 -154 22 -29 13
-60 24 -69 24 -10 0 7 16 36 36 114 77 230 216 250 301 15 63 11 367 -7 473
-22 133 -77 318 -124 417 -66 142 -84 220 -80 353 2 63 3 174 3 245 1 122 -1
135 -31 214 -75 198 -214 341 -397 407 l-60 22 -18 63 c-39 137 -130 347 -176
405 -9 12 -36 47 -60 79 -70 92 -72 94 -158 151 -103 68 -154 91 -334 148
-379 120 -766 188 -1059 185 l-155 -1 -120 45 c-178 68 -329 132 -379 161 -50
29 -119 103 -146 156 -30 60 -34 121 -10 186 11 32 20 60 20 61 0 7 -28 0 -69
-17z m2485 -1442 c7 -52 -2 -118 -16 -118 -6 0 -10 19 -10 43 0 23 -7 69 -15
100 -19 75 -19 76 10 47 16 -16 27 -42 31 -72z m-129 -62 c93 -95 80 -114 -16
-24 -43 40 -77 76 -74 81 10 17 30 4 90 -57z m214 -134 c50 -33 85 -69 76 -79
-8 -8 -147 85 -147 98 0 16 26 9 71 -19z m-68 -95 c19 -61 20 -67 9 -67 -12 0
-29 40 -37 84 -11 55 9 43 28 -17z m-1472 -193 c10 -48 39 -150 64 -227 25
-77 44 -142 41 -144 -2 -2 -41 3 -86 11 -147 28 -472 15 -603 -24 -52 -16 -70
-27 -79 -45 -16 -35 -5 -40 44 -20 36 15 97 19 375 28 182 5 342 7 355 4 18
-5 34 -30 72 -119 74 -169 126 -263 201 -363 20 -27 37 -68 49 -120 10 -44 23
-96 28 -117 12 -43 -9 -191 -42 -288 -20 -60 -162 -353 -183 -378 -5 -7 -40
-30 -76 -52 -36 -21 -97 -61 -136 -90 -90 -66 -206 -136 -322 -194 -51 -26
-93 -51 -93 -56 0 -21 78 -42 170 -47 85 -4 165 5 268 30 12 3 22 3 22 0 0 -7
-129 -177 -232 -305 -84 -104 -80 -101 -228 -139 -71 -18 -124 -22 -314 -26
-227 -5 -708 11 -732 25 -18 10 -162 196 -211 272 -56 87 -232 451 -277 572
-51 137 -60 218 -46 405 13 186 42 351 79 458 53 151 106 275 118 275 22 0 24
-19 8 -65 -31 -94 -8 -258 48 -343 25 -36 48 -55 105 -84 40 -21 86 -38 102
-38 l28 0 -14 -37 c-18 -52 -17 -104 2 -131 15 -22 17 -23 29 -5 7 10 22 49
34 86 11 38 23 73 27 78 3 5 22 -3 42 -19 20 -16 52 -37 70 -46 l32 -17 0 30
c0 21 -10 38 -35 60 l-35 30 43 19 c43 20 85 58 74 68 -3 3 -31 -3 -62 -15
-67 -25 -91 -26 -112 -5 -14 14 -18 13 -42 -9 -58 -54 -128 -39 -207 45 -57
60 -66 89 -15 49 58 -46 101 -61 185 -63 69 -2 79 0 118 27 45 32 98 119 98
162 0 26 4 27 63 11 40 -10 46 -9 66 11 12 12 35 24 51 28 17 3 30 7 30 10 0
13 -22 43 -32 43 -7 0 -54 17 -106 38 -76 30 -97 43 -110 67 -25 49 -115 165
-127 165 -20 0 -42 -33 -56 -80 -15 -55 -13 -52 -32 -45 -8 4 -21 19 -27 35
-11 26 -9 33 13 62 14 18 30 46 36 61 l11 27 -28 -14 c-15 -8 -36 -23 -46 -35
l-19 -21 -24 35 c-41 61 -72 42 -103 -62 -13 -42 -23 -50 -47 -35 -9 6 -4 31
19 99 l32 92 85 6 c110 8 347 42 430 61 35 8 65 14 66 12 2 -2 19 -23 39 -46
30 -36 37 -41 43 -27 3 10 0 33 -6 52 -7 19 -11 36 -9 38 4 5 142 39 278 70
309 69 546 172 700 303 19 17 36 29 38 27 2 -2 12 -43 23 -91z m443 -443 c46
-121 59 -196 60 -361 1 -106 -3 -161 -11 -175 -10 -16 -12 6 -13 122 0 181
-13 273 -56 401 -19 57 -34 107 -34 110 1 18 32 -38 54 -97z m-2204 39 c0 -5
-7 -10 -16 -10 -49 0 -365 -90 -427 -122 -37 -18 -38 -18 -28 0 28 53 283 139
419 141 28 1 52 -3 52 -9z m150 -397 c0 -94 27 -123 116 -123 48 0 72 21 76
68 1 18 7 32 12 32 28 0 116 -36 116 -47 0 -29 -51 -112 -87 -142 -59 -48 -92
-50 -176 -7 -40 19 -90 51 -112 70 l-40 34 1 73 c0 41 3 86 7 101 l7 26 40
-15 c40 -16 40 -16 40 -70z m2987 10 c27 -61 22 -233 -10 -355 -26 -100 -74
-218 -87 -218 -4 0 3 33 15 73 13 41 26 105 29 143 3 38 10 103 16 144 5 41
10 114 10 163 0 48 2 87 5 87 3 0 12 -17 22 -37z m-2875 6 c29 -11 54 -22 56
-24 2 -2 -4 -17 -13 -34 -13 -27 -21 -31 -55 -31 -41 0 -47 8 -50 65 -3 54 -8
52 62 24z m2597 -543 c24 -54 21 -68 -8 -42 -44 40 -97 206 -83 259 4 15 15
-7 38 -73 17 -52 41 -117 53 -144z m943 -141 c26 -99 20 -205 -17 -350 -26
-99 -71 -215 -85 -215 -3 0 6 48 21 106 39 149 59 274 59 368 -1 95 -11 84
-29 -29 -15 -94 -72 -286 -130 -440 -40 -106 -55 -134 -66 -124 -5 5 55 205
95 319 11 31 35 118 55 195 28 111 35 160 36 240 l0 100 21 -45 c11 -25 29
-81 40 -125z m-843 -20 c70 -17 193 -75 230 -108 51 -47 77 -149 49 -200 -23
-44 -144 -170 -198 -207 -62 -42 -298 -163 -310 -158 -4 2 19 60 51 129 32 69
68 161 79 204 25 96 27 239 5 292 -29 69 -19 74 94 48z m-3619 -263 c14 -9 32
-17 40 -19 8 -1 20 -9 26 -17 7 -10 27 -16 55 -16 89 0 119 -57 98 -185 -7
-41 -16 -72 -21 -69 -13 8 -9 -4 18 -58 115 -228 126 -448 40 -803 -47 -192
-74 -262 -110 -290 -45 -34 -89 -42 -121 -21 -40 26 -144 164 -182 241 -53
107 -135 316 -177 449 -21 65 -48 136 -61 157 l-24 38 43 58 c40 54 149 163
192 191 10 6 -8 -1 -41 -17 -77 -37 -145 -97 -176 -155 -13 -25 -30 -46 -36
-46 -19 0 -26 45 -19 111 7 70 20 98 75 160 22 26 49 66 60 90 43 100 117 176
206 211 43 18 76 15 115 -10z m3248 -613 c-43 -78 -294 -305 -458 -416 -86
-58 -266 -143 -345 -164 -75 -19 -243 -33 -410 -34 -91 0 -108 8 -136 62 -30
59 -90 140 -118 159 -34 24 -25 34 32 34 49 0 254 31 299 46 15 4 7 -11 -31
-61 -28 -37 -58 -79 -66 -94 l-14 -28 82 -28 c130 -46 151 -42 303 50 183 111
273 172 316 213 56 54 58 31 2 -25 -73 -73 -310 -227 -404 -264 l-45 -17 47
-7 c66 -10 204 24 300 74 178 92 426 285 578 449 47 50 86 91 88 92 2 0 -7
-19 -20 -41z m916 -119 c-35 -167 -133 -330 -200 -330 -30 0 -30 7 0 31 39 31
113 149 146 235 65 168 78 183 54 64z m62 -41 c-30 -117 -153 -314 -184 -295
-9 5 -7 12 6 26 26 29 149 260 163 308 20 69 33 34 15 -39z m-1333 -528 c28
-5 78 -13 110 -16 l58 -7 -43 -29 c-64 -42 -91 -62 -107 -77 -19 -18 -75 2
-128 45 -25 21 -53 85 -53 123 l0 27 55 -28 c30 -15 79 -32 108 -38z m-1207
-3 c5 -6 -66 -128 -75 -128 -3 0 -13 13 -22 29 -14 24 -15 36 -6 71 l12 42 43
-5 c24 -2 45 -7 48 -9z m-120 -153 c5 -19 -11 -58 -60 -157 -36 -73 -66 -128
-66 -121 0 7 13 49 29 95 73 213 84 234 97 183z m3542 -218 c3 -62 0 -115 -8
-145 -17 -61 -70 -141 -143 -217 -60 -62 -61 -48 -2 35 17 25 46 81 65 125 32
78 33 83 34 237 l1 157 24 -47 c20 -38 26 -66 29 -145z m-2944 -152 c14 -36
-33 -70 -60 -43 -12 12 -12 17 2 36 17 25 49 29 58 7z m-1812 -641 c84 -18
218 -41 298 -50 80 -9 150 -18 157 -20 8 -2 2 -27 -17 -77 -74 -190 -95 -316
-69 -427 8 -37 73 -179 161 -354 l20 -39 -29 21 c-15 11 -84 78 -153 149 -98
100 -152 166 -245 303 -65 96 -153 222 -194 280 -43 60 -85 131 -98 168 -29
79 -29 95 -3 87 11 -4 89 -22 172 -41z"/>
<path d="M4892 5446 c-6 -15 -12 -35 -12 -46 0 -34 -16 -30 -52 14 -20 23 -44
43 -53 43 -16 0 -17 -9 -11 -93 l6 -92 -68 -17 c-70 -17 -172 -68 -172 -86 0
-5 8 -13 18 -17 17 -7 92 -53 92 -55 0 -1 -7 -24 -15 -51 -17 -56 -19 -136 -6
-184 9 -31 9 -32 -15 -26 -36 9 -31 -22 9 -60 79 -74 226 -129 402 -151 135
-17 216 -11 345 25 155 44 300 142 300 203 0 35 -10 34 -46 -4 -30 -33 -106
-84 -171 -118 -69 -35 -260 -56 -323 -36 -18 6 -13 11 37 41 67 40 107 82 134
141 l19 41 118 -5 c64 -3 148 -1 186 5 57 9 74 9 98 -4 33 -17 58 -13 58 10 0
15 -94 145 -113 158 -6 4 -23 5 -37 2 -14 -3 -61 8 -104 23 -77 27 -81 30
-125 94 -25 36 -60 82 -78 102 l-32 36 -25 -54 c-14 -29 -26 -63 -26 -74 0
-12 -3 -21 -7 -21 -19 0 -263 47 -266 51 -2 2 -18 24 -34 49 -29 43 -31 49
-21 99 12 67 8 95 -10 57z m-177 -388 c22 -10 25 -17 25 -59 0 -76 33 -132 85
-145 57 -14 129 35 142 96 7 37 0 36 181 5 64 -12 102 -23 102 -31 0 -25 -91
-112 -146 -139 -59 -29 -182 -65 -224 -65 -29 0 -168 55 -189 76 -18 17 -30
274 -13 274 6 0 23 -5 37 -12z m168 -49 c26 -6 47 -14 47 -18 0 -3 -9 -21 -20
-38 -42 -69 -110 -48 -110 34 0 38 3 44 18 39 9 -3 38 -10 65 -17z"/>
<path d="M5310 4533 c-37 -16 -80 -51 -80 -65 0 -4 8 -8 19 -8 24 0 122 39
141 57 13 12 13 15 0 23 -20 13 -38 11 -80 -7z"/>
<path d="M5475 4451 c-40 -20 -85 -54 -85 -65 0 -3 13 -6 28 -6 33 0 157 60
157 75 0 18 -59 15 -100 -4z"/>
<path d="M3653 4284 c-9 -24 64 -92 124 -114 60 -22 132 -26 199 -9 l44 11 74
-60 c146 -120 281 -166 428 -145 80 11 186 53 214 84 29 32 7 34 -82 5 -53
-18 -118 -30 -170 -34 -84 -5 -86 -4 -177 38 -51 24 -119 63 -152 86 -94 65
-101 67 -232 74 -115 5 -125 8 -193 42 -58 30 -72 34 -77 22z"/>
<path d="M2 7469 l3 -242 120 -37 c181 -57 307 -106 440 -173 138 -68 416
-250 555 -360 94 -76 126 -92 79 -39 -14 15 -80 88 -146 162 -217 243 -560
560 -772 713 -36 27 -84 65 -106 86 -22 21 -70 59 -108 86 l-67 47 2 -243z"/>
<path d="M1507 113 c-14 -14 -6 -40 24 -76 27 -33 36 -37 75 -37 44 0 45 0 30
21 -17 24 -104 99 -115 99 -4 0 -11 -3 -14 -7z"/>
</g>
</svg>
