<?xml version="1.0" standalone="no"?>
<!DOCTYPE svg PUBLIC "-//W3C//DTD SVG 20010904//EN"
 "http://www.w3.org/TR/2001/REC-SVG-20010904/DTD/svg10.dtd">
<svg version="1.0" xmlns="http://www.w3.org/2000/svg"
 width="640.000000pt" height="640.000000pt" viewBox="0 0 640.000000 640.000000"
 preserveAspectRatio="xMidYMid meet">

<g transform="translate(0.000000,640.000000) scale(0.100000,-0.100000)"
fill="#000000" stroke="none">
<path d="M0 4725 c0 -1510 2 -1675 16 -1675 8 0 13 -4 10 -9 -4 -5 7 -15 24
-23 16 -7 30 -18 30 -25 0 -6 14 -14 30 -18 17 -4 36 -12 43 -19 8 -8 51 -15
111 -18 62 -3 93 -2 84 4 -8 6 10 7 52 3 36 -4 84 -8 107 -9 44 -3 73 -19 73
-41 0 -8 18 -29 40 -48 22 -19 40 -39 40 -46 0 -23 31 -71 46 -71 8 0 13 -4
10 -9 -16 -26 116 -211 151 -211 7 0 13 -6 13 -14 0 -8 3 -16 8 -18 4 -1 22
-20 40 -41 23 -28 32 -33 32 -20 1 17 1 17 11 0 5 -9 19 -17 29 -17 11 0 20
-4 20 -9 0 -10 56 -8 140 5 51 7 89 40 110 92 8 21 18 31 27 28 18 -7 54 30
47 48 -3 8 -1 17 5 21 6 3 11 -1 11 -9 0 -9 5 -16 10 -16 6 0 10 8 10 18 0 23
19 42 43 42 13 0 17 -5 13 -15 -4 -10 1 -15 14 -15 11 0 20 5 20 10 0 6 5 10
11 10 13 0 39 -25 39 -38 0 -6 9 -8 20 -5 11 3 20 9 20 14 0 5 7 9 15 9 8 0
15 -7 15 -16 0 -8 5 -12 10 -9 6 4 7 11 4 17 -4 7 -2 8 4 4 16 -10 15 6 0 24
-10 11 -9 11 6 0 11 -8 31 -34 45 -57 14 -23 29 -41 32 -40 10 3 60 -61 52
-65 -5 -3 -2 -3 6 -1 7 2 32 -12 55 -30 51 -41 80 -53 142 -62 60 -9 92 -24
52 -25 -29 0 -38 -17 -14 -26 25 -10 49 -136 44 -232 -3 -72 -9 -95 -31 -133
-15 -25 -27 -52 -27 -59 0 -7 -16 -32 -35 -56 -19 -23 -35 -49 -35 -58 0 -8
-9 -20 -20 -26 -11 -6 -20 -17 -20 -26 0 -8 -11 -26 -25 -40 -25 -25 -50 -65
-48 -74 1 -3 -15 -5 -35 -3 -35 2 -35 2 -7 -5 28 -7 29 -8 10 -20 -19 -11 -18
-11 10 -13 18 -1 1 -7 -40 -14 -38 -7 -113 -22 -165 -34 -52 -11 -104 -18
-115 -15 -16 4 -17 3 -5 -5 13 -9 13 -11 -2 -11 -27 0 -78 -49 -71 -68 6 -15
5 -15 -10 -3 -11 8 -17 9 -17 3 0 -6 -7 -9 -15 -6 -9 4 -23 -2 -33 -13 -20
-24 -74 -53 -97 -53 -9 0 -15 -5 -13 -12 6 -18 -29 -48 -58 -48 -14 0 -23 -4
-20 -9 10 -16 -6 -42 -22 -36 -8 3 -21 0 -28 -6 -10 -8 -14 -8 -14 0 0 13 -36
15 -44 3 -3 -5 -30 -14 -61 -21 -44 -10 -55 -16 -55 -32 0 -11 -8 -23 -17 -26
-10 -4 -42 -31 -71 -60 -29 -29 -57 -53 -62 -53 -6 0 -10 -11 -10 -25 0 -16
-6 -25 -15 -25 -8 0 -15 -6 -15 -14 0 -8 -10 -18 -22 -22 -13 -3 -31 -13 -40
-21 -9 -8 -22 -12 -27 -8 -6 3 -17 3 -23 -2 -15 -9 -44 -15 -75 -17 -13 -1
-23 -4 -23 -7 0 -7 -66 14 -76 24 -4 4 -18 7 -30 7 -23 0 -75 19 -84 31 -3 4
-28 19 -57 33 -28 15 -53 31 -55 35 -2 4 -41 26 -88 49 l-85 41 -3 -276 c-2
-225 0 -278 11 -285 41 -23 97 -91 110 -135 26 -83 98 -223 147 -285 17 -20
30 -42 30 -47 0 -6 5 -11 10 -11 6 0 10 -7 10 -15 0 -9 7 -18 15 -21 8 -4 15
-12 15 -19 0 -7 7 -16 16 -19 9 -3 296 -6 639 -6 l624 0 3 23 c2 13 16 29 37
39 19 9 39 22 44 27 6 6 19 11 28 11 10 0 19 3 21 8 2 4 25 18 51 31 30 15 46
29 43 37 -3 8 1 17 8 21 20 12 48 73 42 90 -4 9 1 17 14 20 11 3 20 9 20 13 0
4 11 11 24 14 18 4 26 14 28 34 3 25 6 27 48 28 25 0 51 -4 58 -9 7 -6 26 -11
42 -12 16 -2 36 -9 44 -18 9 -8 29 -21 46 -29 16 -7 30 -19 30 -25 0 -7 9 -13
19 -13 10 0 22 -7 25 -16 3 -8 10 -13 15 -10 5 3 11 -1 15 -9 3 -8 10 -15 16
-15 6 0 33 -16 62 -35 28 -19 61 -38 74 -41 12 -3 25 -12 28 -20 3 -8 13 -14
23 -14 10 0 35 -11 55 -25 20 -14 40 -25 43 -25 3 0 30 -18 59 -40 l53 -40
1826 0 1827 0 0 3200 0 3200 -3200 0 -3200 0 0 -1675z m3750 -1018 c26 -8 46
-21 48 -31 2 -9 20 -25 40 -35 54 -27 92 -67 92 -94 0 -80 -192 -259 -357
-330 -136 -60 -199 -70 -428 -71 -292 0 -556 41 -721 113 l-51 22 5 45 c6 59
-20 126 -70 176 -47 47 -43 56 35 86 152 59 391 103 716 132 150 13 637 4 691
-13z m-2175 -62 c144 -11 404 -73 463 -111 19 -13 21 -18 10 -37 -6 -12 -11
-51 -11 -86 1 -62 0 -63 -33 -77 -127 -53 -546 -38 -716 26 -76 28 -106 54
-114 96 -9 47 6 71 71 117 29 20 57 46 60 57 5 16 17 20 68 22 34 2 78 3 97 1
19 -1 67 -5 105 -8z m641 -395 c28 0 67 -12 120 -39 86 -43 171 -74 247 -91
75 -16 314 -50 356 -50 21 0 40 -3 44 -6 18 -18 -68 -170 -132 -233 -137 -133
-517 -191 -690 -104 -68 34 -195 157 -246 238 -39 61 -107 193 -119 231 -6 20
-2 22 61 28 99 10 173 26 212 45 32 17 35 17 69 -1 20 -10 55 -18 78 -18z
m-829 -6 c-3 -3 -12 -4 -19 -1 -8 3 -5 6 6 6 11 1 17 -2 13 -5z m90 -276 c-3
-7 -5 -2 -5 12 0 14 2 19 5 13 2 -7 2 -19 0 -25z m20 -120 c-3 -8 -6 -5 -6 6
-1 11 2 17 5 13 3 -3 4 -12 1 -19z m17 -63 c5 -22 4 -26 -4 -15 -5 8 -10 24
-10 34 0 26 6 18 14 -19z m50 -97 c20 -32 34 -58 32 -58 -6 0 -76 108 -76 117
0 9 3 4 44 -59z m3086 -111 c-49 -81 -147 -210 -262 -343 -159 -185 -420 -464
-433 -464 -7 0 -20 9 -29 19 -36 40 -116 66 -196 64 -75 -1 -247 -34 -415 -78
-111 -29 -147 -34 -152 -18 -7 19 83 59 422 188 209 80 641 336 823 489 228
191 267 222 270 209 2 -8 -11 -38 -28 -66z m-2150 -384 c65 -165 144 -281 264
-388 40 -36 57 -58 51 -64 -7 -7 -50 -3 -127 11 l-117 22 -10 40 c-5 23 -26
122 -46 221 -20 99 -38 188 -41 198 -12 39 5 13 26 -40z m-525 -593 c3 -5 1
-10 -4 -10 -6 0 -11 5 -11 10 0 6 2 10 4 10 3 0 8 -4 11 -10z m-72 -27 c-7 -2
-19 -2 -25 0 -7 3 -2 5 12 5 14 0 19 -2 13 -5z m-60 -10 c-7 -2 -21 -2 -30 0
-10 3 -4 5 12 5 17 0 24 -2 18 -5z m1019 -285 c56 -27 172 -34 228 -13 25 9
54 19 65 22 19 4 342 -60 352 -71 2 -2 -13 -42 -34 -88 -22 -45 -55 -120 -74
-165 l-34 -83 -190 0 c-104 0 -226 -3 -270 -6 -66 -6 -84 -4 -97 9 -14 14 -89
234 -118 345 -6 24 -13 49 -16 57 -12 29 126 25 188 -7z m-1927 -99 c0 -7 -8
-15 -17 -17 -18 -3 -25 18 -11 32 10 10 28 1 28 -15z m52 -11 c-3 -8 -6 -5 -6
6 -1 11 2 17 5 13 3 -3 4 -12 1 -19z"/>
<path d="M1615 2571 c-3 -5 -1 -12 5 -16 5 -3 7 -17 4 -31 -8 -33 2 -31 14 4
7 20 6 31 -4 40 -7 7 -15 8 -19 3z"/>
<path d="M1650 2520 c0 -5 5 -10 11 -10 5 0 7 5 4 10 -3 6 -8 10 -11 10 -2 0
-4 -4 -4 -10z"/>
<path d="M1708 1573 c7 -3 16 -2 19 1 4 3 -2 6 -13 5 -11 0 -14 -3 -6 -6z"/>
<path d="M1673 1553 c9 -2 25 -2 35 0 9 3 1 5 -18 5 -19 0 -27 -2 -17 -5z"/>
</g>
</svg>
